<?xml version="1.0" encoding="UTF-8"?>
<svg width="114px" height="70px" viewBox="0 0 114 70" version="1.1" xmlns="http://www.w3.org/2000/svg" xmlns:xlink="http://www.w3.org/1999/xlink">
    <!-- Generator: Sketch 55.2 (78181) - https://sketchapp.com -->
    <title>logo black - clear</title>
    <desc>Created with Sketch.</desc>
    <defs>
        <rect id="path-1" x="0" y="0" width="62" height="62"></rect>
        <linearGradient x1="31.1275776%" y1="50%" x2="73.9053607%" y2="50%" id="linearGradient-3">
            <stop stop-color="#9013FE" offset="0%"></stop>
            <stop stop-color="#5A02A7" offset="100%"></stop>
        </linearGradient>
        <linearGradient x1="35.8881619%" y1="50%" x2="92.9476978%" y2="50%" id="linearGradient-4">
            <stop stop-color="#A33AFF" offset="0%"></stop>
            <stop stop-color="#5A02A7" offset="100%"></stop>
        </linearGradient>
        <linearGradient x1="35.8881619%" y1="50%" x2="92.9476978%" y2="50%" id="linearGradient-5">
            <stop stop-color="#C07AFD" offset="0%"></stop>
            <stop stop-color="#7D00EB" offset="100%"></stop>
        </linearGradient>
    </defs>
    <g id="logo-black---clear" stroke="none" stroke-width="1" fill="none" fill-rule="evenodd">
        <g id="shield-Logo-62px-color-clear-outlined-Copy-12" transform="translate(3.000000, 1.000000)">
            <g id="Symbol">
                <mask id="mask-2" fill="white">
                    <use xlink:href="#path-1"></use>
                </mask>
                <g id="Mask"></g>
                <path d="M50.9935008,12.4375604 C45.4134374,15.0173491 36.6958697,20 15,20 C15,28.6932669 14.673711,38.3093834 17.2627049,44.6859926 C15.9722232,43.3967066 14.8846548,42.1680424 14,41 C8.40702186,33.6153846 9,28 9,16 C35.1005647,16.9230769 43.7371125,12.8461538 50.2622537,11 C50.4493807,11.555909 50.6931297,12.0350958 50.9935008,12.4375604 Z" id="3rd-shield-col" fill="url(#linearGradient-3)"></path>
                <path d="M53.0676689,14.141925 C48.7865144,19.2588006 40.6271659,27.0722536 22.999791,28 C22.999791,41.0979956 24.3658518,48.2756237 26.5940358,52.6691926 C24.8360494,51.3953794 23.4976648,50.2524893 21.7609886,48.5 C16.5164211,43.2076785 18,33.5416667 18,23 C38.5574618,23 46.7499887,16.1798206 52.0395681,13.4594993 C52.3780291,13.6499744 52.721404,13.8975145 53.0676689,14.141925 Z" id="2nd-shield-col" fill="url(#linearGradient-4)"></path>
                <path d="M25.9999106,31 C25.9999106,55 29.0273534,53.932935 36,58 C43,51 50,46 52,38 C53.2697305,32.9210778 53,23 53,17 C49.6306689,21.3202239 42.1493122,29.3033568 25.9999106,31 Z" id="Path-Copy" fill="url(#linearGradient-5)"></path>
                <path d="M6,13 C34,14 44,11 51,9 C52,12 54,12 55,12 C55,31 55,37 53,42 C50.6904611,47.7738473 44.9420594,53.4057242 36,61 C24,53.6666667 16,47.3333333 12,42 C6,34 6,30 6,13 Z M25.9999106,31 C25.9999106,55 29.0273534,53.932935 36,58 C43,51 50,46 52,38 C53.2697305,32.9210778 53,23 53,17 C49.6306689,21.3202239 42.1493122,29.3033568 25.9999106,31 Z M49.0307922,11.3642589 C42.6087221,13.3287204 33.4953237,16.8663057 9,16 C9,28 8.40702186,33.6153846 14,41 C14.8761306,42.1567876 15.9512831,43.3546303 17.2254575,44.5935281 C14.6768499,38.216672 15,28.6513502 15,20 C35.5297185,20 44.4388053,15.538588 50.0649956,12.8732298 C49.599199,12.4755217 49.2544646,11.9725314 49.0307922,11.3642589 Z M51.0466624,13.9952095 C45.7146154,16.9792522 37.3150934,23 18,23 C18,37.5416667 18,46 22.5193124,49.0587164 C23.7307623,49.8786379 24.7810859,50.5703502 25.9935786,51.3648707 C24.1229516,46.885462 22.999791,39.8765625 22.999791,28 C39.9102382,27.1099863 47.5814632,20.1039853 52,15 C53,14 51.4201708,14.3888767 51.0466624,13.9952095 Z" id="Shape" fill="#282828"></path>
            </g>
        </g>
        <path d="M73,17 L73,25 L68,25 L68,16 L65,16 L65,13 L76,13 L76,17 L73,17 Z M84,13 L87,13 L87,16 L84,16 L84,13 Z M79,18 L86,18 L86,25 L79,25 L79,18 Z M100,21 L96,21 L96,25 L92,25 L92,16 L99,16 L99,15 L103,15 L103,25 L100,25 L100,21 Z M69,31 L69,37 L75,37 L75,41 L65,41 L65,29 L75,29 L75,33 L71,33 L71,31 L69,31 Z M86,38 L86,32 L89,32 L89,41 L78,41 L78,31 L82,31 L82,38 L86,38 Z M103,31 L103,41 L93,41 L93,29 L97,29 L97,31 L103,31 Z M99,34 L96,34 L96,37 L99,37 L99,34 Z M65,46 L75,46 L75,48 L72,48 L72,51 L68,51 L68,54 L75,54 L75,58 L65,58 L65,46 Z M86,50 L86,58 L81,58 L81,48 L78,48 L78,46 L89,46 L89,50 L86,50 Z M103,46 L103,58 L99,58 L99,54 L95,54 L95,58 L92,58 L92,46 L96,46 L96,50 L100,50 L100,46 L103,46 Z" id="Brandname" fill="#282828"></path>
    </g>
</svg>