<?xml version="1.0" encoding="UTF-8"?>
<svg width="91px" height="16px" viewBox="0 0 91 16" version="1.1" xmlns="http://www.w3.org/2000/svg" xmlns:xlink="http://www.w3.org/1999/xlink">
    <!-- Generator: Sketch 55.2 (78181) - https://sketchapp.com -->
    <title>mini logo white - clear Horizontal L</title>
    <desc>Created with Sketch.</desc>
    <defs>
        <rect id="path-1" x="0" y="0" width="14" height="14"></rect>
        <linearGradient x1="35.8881619%" y1="50%" x2="92.9476978%" y2="50%" id="linearGradient-3">
            <stop stop-color="#9013FE" offset="0%"></stop>
            <stop stop-color="#5A02A7" offset="100%"></stop>
        </linearGradient>
        <linearGradient x1="35.8881619%" y1="50%" x2="92.9476978%" y2="50%" id="linearGradient-4">
            <stop stop-color="#A33AFF" offset="0%"></stop>
            <stop stop-color="#5A02A7" offset="100%"></stop>
        </linearGradient>
        <linearGradient x1="35.8881619%" y1="50%" x2="92.9476978%" y2="50%" id="linearGradient-5">
            <stop stop-color="#C07AFD" offset="0%"></stop>
            <stop stop-color="#7D00EB" offset="100%"></stop>
        </linearGradient>
    </defs>
    <g id="mini-logo-white---clear-Horizontal-L" stroke="none" stroke-width="1" fill="none" fill-rule="evenodd">
        <g id="shield-Logo-62px-WonB-outlined-RndPix-Copy-7" transform="translate(4.000000, 0.000000)">
            <g id="Symbol">
                <mask id="mask-2" fill="white">
                    <use xlink:href="#path-1"></use>
                </mask>
                <g id="Mask"></g>
                <path d="M11.5146615,2.80848139 C10.2546471,3.39101431 8.28616412,4.51612903 3.38709677,4.51612903 C3.38709677,6.47912478 3.3134186,8.65050593 3.89803014,10.0903854 C3.60663104,9.79925634 3.36105109,9.52181603 3.16129032,9.25806452 C1.89835977,7.59057072 2.03225806,6.32258065 2.03225806,3.61290323 C7.92593396,3.82133995 9.87612219,2.90074442 11.3495412,2.48387097 C11.3917956,2.60939881 11.4468357,2.71760228 11.5146615,2.80848139 Z" id="3rd-shield-col" fill="url(#linearGradient-3)"></path>
                <path d="M11.983022,3.1933379 C11.0163097,4.34876143 9.17387618,6.11308953 5.19350119,6.32258065 C5.19350119,9.28019256 5.50196654,10.9009473 6.00510486,11.8930435 C5.6081402,11.6054083 5.30592431,11.3473363 4.91377163,10.9516129 C3.72951445,9.75657256 4.06451613,7.57392473 4.06451613,5.19354839 C8.70652363,5.19354839 10.5564491,3.65350789 11.7508702,3.03924178 C11.8272969,3.08225229 11.9048332,3.13814842 11.983022,3.1933379 Z" id="2nd-shield-col" fill="url(#linearGradient-4)"></path>
                <path d="M5.87094755,7 C9.51758663,6.61688702 11.3213559,4.83236027 12.0821726,3.85682585 C12.1421151,3.77996641 12.1724638,3.68702165 12.1602135,3.83121727 C11.9677419,6.09677419 12.0286488,7.20798532 11.7419355,8.35483871 C11.2903226,10.1612903 9.66074405,11.5504909 8.12903226,13.0967742 C6.55456367,12.1784047 5.87094755,12.4193548 5.87094755,7 Z" id="1st-shield-col" fill="url(#linearGradient-5)"></path>
                <path d="M1.35483871,2.93548387 C7.67741935,3.16129032 9.93548387,2.48387097 11.516129,2.03225806 C11.7419355,2.70967742 12.4193548,2.70967742 12.6451613,2.70967742 C12.6451613,5.87096774 12.7776896,7.31419019 11.9677419,9.25806452 C11.4277768,10.5539807 10.148207,12.0593571 8.12903226,13.7741935 C5.41935484,12.1182796 3.61290323,10.688172 2.70967742,9.48387097 C1.35483871,7.67741935 1.35483871,6.77419355 1.35483871,2.93548387 Z M5.87094755,7 C5.87094755,12.4193548 6.55456367,12.1784047 8.12903226,13.0967742 C9.66074405,11.5504909 11.2903226,10.1612903 11.7419355,8.35483871 C12.0286488,7.20798532 11.9677419,6.09677419 12.1602135,3.83121727 C12.1724638,3.68702165 12.1421151,3.77996641 12.0821726,3.85682585 C11.3213559,4.83236027 9.51758663,6.61688702 5.87094755,7 Z M11.304999,2.90685835 C11.1998191,2.81705329 11.1219759,2.70347483 11.0714692,2.56612299 C9.62132433,3.00971105 7.5634602,3.80852064 2.03225806,3.61290323 C2.03225806,6.32258065 1.89835977,7.59057072 3.16129032,9.25806452 C3.35912627,9.51927461 3.60190264,9.78975522 3.88961944,10.0695063 C3.3141274,8.6295711 3.38709677,6.46965973 3.38709677,4.51612903 C8.02283967,4.51612903 10.0345689,3.50871343 11.304999,2.90685835 L11.304999,2.90685835 Z M11.8606391,3.33719162 C11.7316255,3.30316652 11.6110063,3.24910119 11.5266657,3.1602086 C10.3226551,3.83402468 8.42598883,5.19354839 4.06451613,5.19354839 C4.06451613,8.47715054 4.06451613,10.3870968 5.08500604,11.0777747 C5.35855923,11.2629182 5.59572907,11.4191113 5.86951775,11.5985192 C5.44711811,10.5870398 5.19350119,9.00438508 5.19350119,6.32258065 C9.01198928,6.1216098 10.862905,4.48970442 11.8606391,3.33719162 L11.8606391,3.33719162 Z" id="Shape" fill="#FFFFFF"></path>
            </g>
        </g>
        <path d="M25,6 L25,12 L23,12 L23,6 L21,6 L21,4 L27,4 L27,6 L25,6 Z M29,4 L31,4 L31,6 L29,6 L29,4 Z M29,8 L31,8 L31,12 L29,12 L29,8 Z M37,6 L35,6 L35,12 L33,12 L33,4 L39,4 L39,12 L37,12 L37,6 Z M43,6 L43,10 L45,10 L45,12 L41,12 L41,4 L45,4 L45,6 L43,6 Z M51,10 L51,4 L53,4 L53,12 L47,12 L47,4 L49,4 L49,10 L51,10 Z M61,6 L61,12 L55,12 L55,4 L57,4 L57,6 L61,6 Z M59,8 L57,8 L57,10 L59,10 L59,8 Z M63,4 L69,4 L69,6 L67,6 L67,8 L65,8 L65,10 L69,10 L69,12 L63,12 L63,4 Z M75,6 L75,12 L73,12 L73,6 L71,6 L71,4 L77,4 L77,6 L75,6 Z M85,6 L85,12 L83,12 L83,8 L81,8 L81,12 L79,12 L79,4 L81,4 L81,6 L85,6 Z" id="brandname" fill="#FFFFFF"></path>
    </g>
</svg>