<?xml version="1.0" encoding="UTF-8"?>
<svg width="155px" height="35px" viewBox="0 0 155 35" version="1.1" xmlns="http://www.w3.org/2000/svg" xmlns:xlink="http://www.w3.org/1999/xlink">
    <!-- Generator: Sketch 55.2 (78181) - https://sketchapp.com -->
    <title>mini logo black - clear Horizontal L Copy</title>
    <desc>Created with Sketch.</desc>
    <defs>
        <rect id="path-1" x="0" y="0" width="26.4599998" height="26.4599998"></rect>
        <linearGradient x1="31.1275776%" y1="50%" x2="73.9053607%" y2="50%" id="linearGradient-3">
            <stop stop-color="#9013FE" offset="0%"></stop>
            <stop stop-color="#5A02A7" offset="100%"></stop>
        </linearGradient>
        <linearGradient x1="35.8881619%" y1="50%" x2="92.9476978%" y2="50%" id="linearGradient-4">
            <stop stop-color="#A33AFF" offset="0%"></stop>
            <stop stop-color="#5A02A7" offset="100%"></stop>
        </linearGradient>
        <linearGradient x1="35.8881619%" y1="50%" x2="92.9476978%" y2="50%" id="linearGradient-5">
            <stop stop-color="#C07AFD" offset="0%"></stop>
            <stop stop-color="#7D00EB" offset="100%"></stop>
        </linearGradient>
    </defs>
    <g id="mini-logo-black---clear-Horizontal-L-Copy" stroke="none" stroke-width="1" fill="none" fill-rule="evenodd">
        <g id="shield-Logo-62px-color-clear-outlined-Copy-11" transform="translate(4.000000, 2.000000)">
            <g id="Symbol">
                <mask id="mask-2" fill="white">
                    <use xlink:href="#path-1"></use>
                </mask>
                <g id="Mask"></g>
                <path d="M21.76271,5.30802979 C19.381283,6.40901699 15.6608501,8.53548381 6.40161285,8.53548381 C6.40161285,12.2455457 6.26236111,16.3494561 7.36727692,19.0708283 C6.8165326,18.5205943 6.35238652,17.9962322 5.97483866,17.4977418 C3.58789995,14.3461786 3.84096771,11.9496773 3.84096771,6.82838705 C14.9800151,7.22233245 18.6658708,5.48240691 21.4506326,4.69451609 C21.5304936,4.93176371 21.6345194,5.13626827 21.76271,5.30802979 Z" id="3rd-shield-col" fill="url(#linearGradient-3)"></path>
                <path d="M22.6479114,6.03540859 C20.8208252,8.21915904 17.3386259,11.5537391 9.81571718,11.9496773 C9.81571718,17.5395638 10.3987167,20.6027902 11.3496481,22.477852 C10.5993849,21.9342214 10.0281969,21.4464654 9.28702831,20.6985482 C7.04878226,18.439922 7.68193543,14.3147176 7.68193543,9.81580638 C16.4553295,9.81580638 19.9516886,6.90512985 22.2091446,5.74416692 C22.353591,5.82545679 22.5001345,5.93110048 22.6479114,6.03540859 Z" id="2nd-shield-col" fill="url(#linearGradient-4)"></path>
                <path d="M11.0960908,13.2299999 C11.0960908,23.4725805 12.3881252,23.0171847 15.3638709,24.752903 C18.3512902,21.7654837 21.3387095,19.6316128 22.1922579,16.2174192 C22.7341461,14.0498663 22.6190321,9.81580638 22.6190321,7.25516124 C21.1810886,9.09892128 17.9882386,12.5059164 11.0960908,13.2299999 Z" id="Path-Copy" fill="url(#linearGradient-5)"></path>
                <path d="M2.56064514,5.54806447 C14.5103225,5.97483866 18.7780644,4.69451609 21.7654837,3.84096771 C22.1922579,5.12129028 23.0458063,5.12129028 23.4725805,5.12129028 C23.4725805,13.2299999 23.4725805,15.790645 22.6190321,17.924516 C21.6333805,20.388645 19.180111,22.7921847 15.3638709,26.0332256 C10.2425806,22.9035482 6.82838705,20.200645 5.12129028,17.924516 C2.56064514,14.5103225 2.56064514,12.8032257 2.56064514,5.54806447 Z M11.0960908,13.2299999 C11.0960908,23.4725805 12.3881252,23.0171847 15.3638709,24.752903 C18.3512902,21.7654837 21.3387095,19.6316128 22.1922579,16.2174192 C22.7341461,14.0498663 22.6190321,9.81580638 22.6190321,7.25516124 C21.1810886,9.09892128 17.9882386,12.5059164 11.0960908,13.2299999 Z M20.9250766,4.84997241 C18.1843029,5.68835384 14.2949397,7.19810396 3.84096771,6.82838705 C3.84096771,11.9496773 3.58789995,14.3461786 5.97483866,17.4977418 C6.3487486,17.9914289 6.80759594,18.5026372 7.35138069,19.0313669 C6.26370074,16.3098893 6.40161285,12.2276568 6.40161285,8.53548381 C15.1631669,8.53548381 18.9653352,6.63146833 21.366448,5.49396223 C21.167658,5.32423067 21.0205342,5.1095674 20.9250766,4.84997241 Z M21.785398,5.9727942 C19.509818,7.2463066 15.9251188,9.81580638 7.68193543,9.81580638 C7.68193543,16.0218144 7.68193543,19.6316128 9.61066134,20.936994 C10.1276769,21.2869153 10.5759279,21.5821202 11.0933885,21.9212011 C10.2950531,20.0095051 9.81571718,17.0182877 9.81571718,11.9496773 C17.0326596,11.5698424 20.3065404,8.57986203 22.1922579,6.40161285 C22.6190321,5.97483866 21.9448018,6.1408012 21.785398,5.9727942 Z" id="Shape" fill="#FFFFFF"></path>
            </g>
        </g>
        <text id="Reasonable-Privacy" font-family="SFProText-Heavy, SF Pro Text" font-size="9" font-weight="600" line-spacing="8" letter-spacing="0.0732246923" fill="#7D00EB">
            <tspan x="34" y="30">Reasonable Privacy</tspan>
        </text>
        <path d="M40,11 L40,18 L36,18 L36,9 L33,9 L33,7 L43,7 L43,11 L40,11 Z M50,7 L53,7 L53,10 L50,10 L50,7 Z M46,12 L52,12 L52,18 L46,18 L46,12 Z M64,14 L61,14 L61,18 L57,18 L57,10 L64,10 L64,9 L67,9 L67,18 L64,18 L64,14 Z M74,9 L74,14 L80,14 L80,18 L71,18 L71,7 L80,7 L80,10 L77,10 L77,9 L74,9 Z M91,15 L91,10 L94,10 L94,18 L84,18 L84,9 L88,9 L88,15 L91,15 Z M107,9 L107,18 L98,18 L98,7 L102,7 L102,9 L107,9 Z M104,11 L101,11 L101,14 L104,14 L104,11 Z M112,7 L121,7 L121,9 L118,9 L118,12 L115,12 L115,14 L121,14 L121,18 L112,18 L112,7 Z M131,11 L131,18 L127,18 L127,9 L124,9 L124,7 L134,7 L134,11 L131,11 Z M147,7 L147,18 L143,18 L143,14 L140,14 L140,18 L137,18 L137,7 L141,7 L141,11 L144,11 L144,7 L147,7 Z" id="Brandname" fill="#FFFFFF"></path>
    </g>
</svg>