<?xml version="1.0" encoding="UTF-8"?>
<svg width="62px" height="62px" viewBox="0 0 62 62" version="1.1" xmlns="http://www.w3.org/2000/svg" xmlns:xlink="http://www.w3.org/1999/xlink">
    <!-- Generator: Sketch 55.2 (78181) - https://sketchapp.com -->
    <title>shield Logo 62px color-clear outlined Copy 12</title>
    <desc>Created with Sketch.</desc>
    <defs>
        <rect id="path-1" x="0" y="0" width="62" height="62"></rect>
        <linearGradient x1="31.1275776%" y1="50%" x2="73.9053607%" y2="50%" id="linearGradient-3">
            <stop stop-color="#9013FE" offset="0%"></stop>
            <stop stop-color="#5A02A7" offset="100%"></stop>
        </linearGradient>
        <linearGradient x1="35.8881619%" y1="50%" x2="92.9476978%" y2="50%" id="linearGradient-4">
            <stop stop-color="#A33AFF" offset="0%"></stop>
            <stop stop-color="#5A02A7" offset="100%"></stop>
        </linearGradient>
        <linearGradient x1="35.8881619%" y1="50%" x2="92.9476978%" y2="50%" id="linearGradient-5">
            <stop stop-color="#C07AFD" offset="0%"></stop>
            <stop stop-color="#7D00EB" offset="100%"></stop>
        </linearGradient>
    </defs>
    <g id="shield-Logo-62px-color-clear-outlined-Copy-12" stroke="none" stroke-width="1" fill="none" fill-rule="evenodd">
        <g id="Symbol">
            <mask id="mask-2" fill="white">
                <use xlink:href="#path-1"></use>
            </mask>
            <g id="Mask"></g>
            <path d="M50.9935008,12.4375604 C45.4134374,15.0173491 36.6958697,20 15,20 C15,28.6932669 14.673711,38.3093834 17.2627049,44.6859926 C15.9722232,43.3967066 14.8846548,42.1680424 14,41 C8.40702186,33.6153846 9,28 9,16 C35.1005647,16.9230769 43.7371125,12.8461538 50.2622537,11 C50.4493807,11.555909 50.6931297,12.0350958 50.9935008,12.4375604 Z" id="3rd-shield-col" fill="url(#linearGradient-3)"></path>
            <path d="M53.0676689,14.141925 C48.7865144,19.2588006 40.6271659,27.0722536 22.999791,28 C22.999791,41.0979956 24.3658518,48.2756237 26.5940358,52.6691926 C24.8360494,51.3953794 23.4976648,50.2524893 21.7609886,48.5 C16.5164211,43.2076785 18,33.5416667 18,23 C38.5574618,23 46.7499887,16.1798206 52.0395681,13.4594993 C52.3780291,13.6499744 52.721404,13.8975145 53.0676689,14.141925 Z" id="2nd-shield-col" fill="url(#linearGradient-4)"></path>
            <path d="M25.9999106,31 C25.9999106,55 29.0273534,53.932935 36,58 C43,51 50,46 52,38 C53.2697305,32.9210778 53,23 53,17 C49.6306689,21.3202239 42.1493122,29.3033568 25.9999106,31 Z" id="Path-Copy" fill="url(#linearGradient-5)"></path>
            <path d="M6,13 C34,14 44,11 51,9 C52,12 54,12 55,12 C55,31 55,37 53,42 C50.6904611,47.7738473 44.9420594,53.4057242 36,61 C24,53.6666667 16,47.3333333 12,42 C6,34 6,30 6,13 Z M25.9999106,31 C25.9999106,55 29.0273534,53.932935 36,58 C43,51 50,46 52,38 C53.2697305,32.9210778 53,23 53,17 C49.6306689,21.3202239 42.1493122,29.3033568 25.9999106,31 Z M49.0307922,11.3642589 C42.6087221,13.3287204 33.4953237,16.8663057 9,16 C9,28 8.40702186,33.6153846 14,41 C14.8761306,42.1567876 15.9512831,43.3546303 17.2254575,44.5935281 C14.6768499,38.216672 15,28.6513502 15,20 C35.5297185,20 44.4388053,15.538588 50.0649956,12.8732298 C49.599199,12.4755217 49.2544646,11.9725314 49.0307922,11.3642589 Z M51.0466624,13.9952095 C45.7146154,16.9792522 37.3150934,23 18,23 C18,37.5416667 18,46 22.5193124,49.0587164 C23.7307623,49.8786379 24.7810859,50.5703502 25.9935786,51.3648707 C24.1229516,46.885462 22.999791,39.8765625 22.999791,28 C39.9102382,27.1099863 47.5814632,20.1039853 52,15 C53,14 51.4201708,14.3888767 51.0466624,13.9952095 Z" id="Shape" fill="#000000"></path>
        </g>
    </g>
</svg>