<?xml version="1.0" encoding="UTF-8"?>
<svg width="142px" height="142px" viewBox="0 0 142 142" version="1.1" xmlns="http://www.w3.org/2000/svg" xmlns:xlink="http://www.w3.org/1999/xlink">
    <!-- Generator: Sketch 55.2 (78181) - https://sketchapp.com -->
    <title>Symbol 5.01x5.01com col on dark</title>
    <desc>Created with Sketch.</desc>
    <defs>
        <rect id="path-1" x="0" y="0" width="125" height="125"></rect>
        <linearGradient x1="31.1275776%" y1="50%" x2="73.9053607%" y2="50%" id="linearGradient-3">
            <stop stop-color="#9013FE" offset="0%"></stop>
            <stop stop-color="#5A02A7" offset="100%"></stop>
        </linearGradient>
        <linearGradient x1="35.8881619%" y1="50%" x2="92.9476978%" y2="50%" id="linearGradient-4">
            <stop stop-color="#A33AFF" offset="0%"></stop>
            <stop stop-color="#5A02A7" offset="100%"></stop>
        </linearGradient>
        <linearGradient x1="35.8881619%" y1="50%" x2="92.9476978%" y2="50%" id="linearGradient-5">
            <stop stop-color="#C07AFD" offset="0%"></stop>
            <stop stop-color="#7D00EB" offset="100%"></stop>
        </linearGradient>
    </defs>
    <g id="Symbol-5.01x5.01com-col-on-dark" stroke="none" stroke-width="1" fill="none" fill-rule="evenodd">
        <rect fill="#000000" x="0" y="0" width="142" height="142"></rect>
        <g id="shield-Logo-62px-color-clear-outlined-Copy-11" transform="translate(9.000000, 4.000000)">
            <g id="Symbol">
                <mask id="mask-2" fill="white">
                    <use xlink:href="#path-1"></use>
                </mask>
                <g id="Mask"></g>
                <path d="M102.809477,25.0757267 C91.5593495,30.2769134 73.9836082,40.3225806 30.2419355,40.3225806 C30.2419355,57.8493284 29.5840947,77.2366601 34.8038406,90.0927271 C32.2020628,87.4933602 30.0093848,85.0162146 28.2258065,82.6612903 C16.9496408,67.7729529 18.1451613,56.4516129 18.1451613,32.2580645 C70.7672675,34.1191067 88.1796624,25.8995037 101.335189,22.1774194 C101.712461,23.2982036 102.203891,24.2643061 102.809477,25.0757267 Z" id="3rd-shield-col" fill="url(#linearGradient-3)"></path>
                <path d="M106.991268,28.5119456 C98.359908,38.8282271 81.9096088,54.5811565 46.3705464,56.4516129 C46.3705464,82.8588621 49.1247012,97.3298864 53.6170077,106.187888 C50.0726803,103.619717 47.3743242,101.315503 43.872961,97.7822581 C33.2992362,87.112255 36.2903226,67.624328 36.2903226,46.3709677 C77.7368181,46.3709677 94.2540096,32.6206061 104.918484,27.1360873 C105.600865,27.5201098 106.293153,28.0191824 106.991268,28.5119456 Z" id="2nd-shield-col" fill="url(#linearGradient-4)"></path>
                <path d="M52.4191746,62.5 C52.4191746,110.887097 58.5228899,108.735756 72.5806452,116.935484 C86.6935484,102.822581 100.806452,92.7419355 104.83871,76.6129032 C107.39865,66.3731408 106.854839,46.3709677 106.854839,34.2741935 C100.061833,42.9843223 84.9784521,59.0793484 52.4191746,62.5 Z" id="Path-Copy" fill="url(#linearGradient-5)"></path>
                <path d="M12.0967742,26.2096774 C68.5483871,28.2258065 88.7096774,22.1774194 102.822581,18.1451613 C104.83871,24.1935484 108.870968,24.1935484 110.887097,24.1935484 C110.887097,62.5 110.887097,74.5967742 106.854839,84.6774194 C102.19851,96.3182406 90.6089906,107.672831 72.5806452,122.983871 C48.3870968,108.198925 32.2580645,95.4301075 24.1935484,84.6774194 C12.0967742,68.5483871 12.0967742,60.483871 12.0967742,26.2096774 Z M52.4191746,62.5 C52.4191746,110.887097 58.5228899,108.735756 72.5806452,116.935484 C86.6935484,102.822581 100.806452,92.7419355 104.83871,76.6129032 C107.39865,66.3731408 106.854839,46.3709677 106.854839,34.2741935 C100.061833,42.9843223 84.9784521,59.0793484 52.4191746,62.5 Z M98.8524036,22.9118124 C85.9046816,26.8724201 67.5308946,34.0046486 18.1451613,32.2580645 C18.1451613,56.4516129 16.9496408,67.7729529 28.2258065,82.6612903 C29.9921988,84.9935233 32.159845,87.4085288 34.728745,89.9063067 C29.5904232,77.049742 30.2419355,57.764819 30.2419355,40.3225806 C71.632497,40.3225806 89.5943656,31.3277985 100.937491,25.9540924 C99.9983851,25.1522615 99.303356,24.1381682 98.8524036,22.9118124 Z M102.916658,28.2161482 C92.1665634,34.2323633 75.2320432,46.3709677 36.2903226,46.3709677 C36.2903226,75.6888441 36.2903226,92.7419355 45.4018396,98.9087023 C47.8442788,100.56177 49.9618667,101.956351 52.4064085,103.558207 C48.6349831,94.527141 46.3705464,80.3962953 46.3705464,56.4516129 C80.46419,54.6572303 95.9303694,40.5322283 104.83871,30.2419355 C106.854839,28.2258065 103.669699,29.009832 102.916658,28.2161482 Z" id="Shape" fill="#FFFFFF"></path>
            </g>
        </g>
    </g>
</svg>