<?xml version="1.0" encoding="UTF-8"?>
<svg width="60px" height="60px" viewBox="0 0 60 60" version="1.1" xmlns="http://www.w3.org/2000/svg" xmlns:xlink="http://www.w3.org/1999/xlink">
    <!-- Generator: Sketch 55.2 (78181) - https://sketchapp.com -->
    <title>Tin3 Symbol draft 60px</title>
    <desc>Created with Sketch.</desc>
    <defs>
        <linearGradient x1="50%" y1="42.0994044%" x2="68.7329132%" y2="53.0453899%" id="linearGradient-1">
            <stop stop-color="#C07AFD" offset="0%"></stop>
            <stop stop-color="#6E00CF" offset="100%"></stop>
        </linearGradient>
        <linearGradient x1="50%" y1="42.0994044%" x2="82.3770014%" y2="53.0453899%" id="linearGradient-2">
            <stop stop-color="#C07AFD" offset="0%"></stop>
            <stop stop-color="#6E00CF" offset="100%"></stop>
        </linearGradient>
        <linearGradient x1="50%" y1="42.0994044%" x2="67.6837131%" y2="53.0453899%" id="linearGradient-3">
            <stop stop-color="#C07AFD" offset="0%"></stop>
            <stop stop-color="#6E00CF" offset="100%"></stop>
        </linearGradient>
        <text id="text-4" font-family="SFProText-Bold, SF Pro Text" font-size="24" font-weight="bold" letter-spacing="7.5" fill="#FFFFFF">
            <tspan x="31" y="33">3</tspan>
        </text>
        <filter x="-35.4%" y="-22.4%" width="170.8%" height="158.6%" filterUnits="objectBoundingBox" id="filter-5">
            <feOffset dx="0" dy="2" in="SourceAlpha" result="shadowOffsetOuter1"></feOffset>
            <feGaussianBlur stdDeviation="2.5" in="shadowOffsetOuter1" result="shadowBlurOuter1"></feGaussianBlur>
            <feColorMatrix values="0 0 0 0 0.351887251   0 0 0 0 0.00643189782   0 0 0 0 0.655429121  0 0 0 1 0" type="matrix" in="shadowBlurOuter1"></feColorMatrix>
        </filter>
    </defs>
    <g id="Tin3-Symbol-draft-60px" stroke="none" stroke-width="1" fill="none" fill-rule="evenodd">
        <g id="shield-L" transform="translate(1.000000, 2.000000)">
            <path d="M13.0199372,2.36285904 C13.2528465,16.1695491 15.5136599,29.2732917 19.1310092,39.6714303 C21.9933347,47.8992386 25.4774394,53.4854367 28,54.734884 C28,54.4079038 28,53.9594351 28,53.2192276 C28,50.9231344 28,50.9231344 28,47.9303437 C28,41.1087251 28,41.1087251 28,33.1723902 C28,24.7568805 28,24.7568805 28,17.670434 C28,14.6256094 28,14.6256094 28,12.4114494 C28,11.7600483 28,11.3559563 28,11.0750278 C24.1417019,10.5771569 18.4661001,7.36628622 13.0199372,2.36285904 Z" id="Rectangle-Copy-3" stroke="#5A02A7" stroke-width="2" fill="#5A02A7"></path>
            <path d="M4.50430024,5.78575334 C4.64514849,18.6599003 8.23777421,31.0697755 14.0745984,41.1239674 C18.8699876,49.3842406 24.7204868,54.9974808 28.5,55.4679548 C28.5,54.6772225 28.5,54.2870271 28.5,51.9157609 C28.5,48.28125 28.5,48.28125 28.5,43.0543478 C28.5,30.3209391 28.5,30.2128814 28.5,11.484976 C20.1821443,11.1995747 12.1823632,9.29943859 4.50430024,5.78575334 Z" id="Rectangle-Copy-2" stroke="url(#linearGradient-1)" fill="#6E00CF"></path>
            <path d="M0.503788461,13.7364135 C0.648751534,25.9424682 4.94609323,36.532243 12.0500197,44.6836923 C17.5020975,50.9397164 24.3371378,55.1564498 28.5,55.4799682 C28.5,54.7010516 28.5,54.3145506 28.5,51.9527439 C28.5,48.3285061 28.5,48.3285061 28.5,43.1036585 C28.5,30.4088415 28.5,30.2549375 28.5,11.6918034 C18.2149558,15.0401914 8.88081811,15.7247803 0.503788461,13.7364135 Z" id="Rectangle" stroke="url(#linearGradient-2)" fill="#9013FE"></path>
            <path d="M8.08240554,20.5121951 C17.1459421,19.796748 24.1311455,16.9593496 29.0380156,12 C29.0115113,39.1869919 28.9982592,53.8536585 28.9982592,56 C24.775332,56 8,42 8.08240554,20.5121951 Z" id="Rectangle-Copy" fill="url(#linearGradient-3)"></path>
        </g>
        <g id="shield-R" transform="translate(44.500000, 30.000000) scale(-1, 1) translate(-44.500000, -30.000000) translate(30.000000, 2.000000)">
            <path d="M13.0199372,2.36285904 C13.2528465,16.1695491 15.5136599,29.2732917 19.1310092,39.6714303 C21.9933347,47.8992386 25.4774394,53.4854367 28,54.734884 C28,54.4079038 28,53.9594351 28,53.2192276 C28,50.9231344 28,50.9231344 28,47.9303437 C28,41.1087251 28,41.1087251 28,33.1723902 C28,24.7568805 28,24.7568805 28,17.670434 C28,14.6256094 28,14.6256094 28,12.4114494 C28,11.7600483 28,11.3559563 28,11.0750278 C24.1417019,10.5771569 18.4661001,7.36628622 13.0199372,2.36285904 Z" id="Rectangle-Copy-3" stroke="#5A02A7" stroke-width="2" fill="#5A02A7"></path>
            <path d="M4.50430024,5.78575334 C4.64514849,18.6599003 8.23777421,31.0697755 14.0745984,41.1239674 C18.8699876,49.3842406 24.7204868,54.9974808 28.5,55.4679548 C28.5,54.6772225 28.5,54.2870271 28.5,51.9157609 C28.5,48.28125 28.5,48.28125 28.5,43.0543478 C28.5,30.3209391 28.5,30.2128814 28.5,11.484976 C20.1821443,11.1995747 12.1823632,9.29943859 4.50430024,5.78575334 Z" id="Rectangle-Copy-2" stroke="url(#linearGradient-1)" fill="#6E00CF"></path>
            <path d="M0.503788461,13.7364135 C0.648751534,25.9424682 4.94609323,36.532243 12.0500197,44.6836923 C17.5020975,50.9397164 24.3371378,55.1564498 28.5,55.4799682 C28.5,54.7010516 28.5,54.3145506 28.5,51.9527439 C28.5,48.3285061 28.5,48.3285061 28.5,43.1036585 C28.5,30.4088415 28.5,30.2549375 28.5,11.6918034 C18.2149558,15.0401914 8.88081811,15.7247803 0.503788461,13.7364135 Z" id="Rectangle" stroke="url(#linearGradient-2)" fill="#9013FE"></path>
            <path d="M8.04438991,20.5121951 C17.1079265,19.796748 24.0931298,16.9593496 29,12 C28.9734957,39.1869919 28.9602435,53.8536585 28.9602435,56 C24.7373163,56 7.96198437,42 8.04438991,20.5121951 Z" id="Rectangle-Copy-4" fill="url(#linearGradient-3)"></path>
        </g>
        <g id="3" fill="#FFFFFF" fill-opacity="1">
            <use filter="url(#filter-5)" xlink:href="#text-4"></use>
            <use xlink:href="#text-4"></use>
        </g>
    </g>
</svg>