<?xml version="1.0" encoding="UTF-8"?>
<svg width="155px" height="35px" viewBox="0 0 155 35" version="1.1" xmlns="http://www.w3.org/2000/svg" xmlns:xlink="http://www.w3.org/1999/xlink">
    <!-- Generator: Sketch 55.2 (78181) - https://sketchapp.com -->
    <title>TincubETH HOR- logo symbol+brandname+claim- color white on dark-clear- 5.47x1.23cm Copy</title>
    <desc>Created with Sketch.</desc>
    <defs>
        <rect id="path-1" x="0" y="0" width="26.4599998" height="26.4599998"></rect>
        <linearGradient x1="31.1275776%" y1="50%" x2="73.9053607%" y2="50%" id="linearGradient-3">
            <stop stop-color="#9013FE" offset="0%"></stop>
            <stop stop-color="#5A02A7" offset="100%"></stop>
        </linearGradient>
        <linearGradient x1="35.8881619%" y1="50%" x2="92.9476978%" y2="50%" id="linearGradient-4">
            <stop stop-color="#A33AFF" offset="0%"></stop>
            <stop stop-color="#5A02A7" offset="100%"></stop>
        </linearGradient>
        <linearGradient x1="35.8881619%" y1="50%" x2="92.9476978%" y2="50%" id="linearGradient-5">
            <stop stop-color="#C07AFD" offset="0%"></stop>
            <stop stop-color="#7D00EB" offset="100%"></stop>
        </linearGradient>
    </defs>
    <g id="TincubETH-HOR--logo-symbol+brandname+claim--color-white-on-dark-clear--5.47x1.23cm-Copy" stroke="none" stroke-width="1" fill="none" fill-rule="evenodd">
        <g id="shield-Logo-62px-color-clear-outlined-Copy-11" transform="translate(4.000000, 2.000000)">
            <g id="Symbol">
                <mask id="mask-2" fill="white">
                    <use xlink:href="#path-1"></use>
                </mask>
                <g id="Mask"></g>
                <path d="M21.76271,5.30802979 C19.381283,6.40901699 15.6608501,8.53548381 6.40161285,8.53548381 C6.40161285,12.2455457 6.26236111,16.3494561 7.36727692,19.0708283 C6.8165326,18.5205943 6.35238652,17.9962322 5.97483866,17.4977418 C3.58789995,14.3461786 3.84096771,11.9496773 3.84096771,6.82838705 C14.9800151,7.22233245 18.6658708,5.48240691 21.4506326,4.69451609 C21.5304936,4.93176371 21.6345194,5.13626827 21.76271,5.30802979 Z" id="3rd-shield-col" fill="url(#linearGradient-3)"></path>
                <path d="M22.6479114,6.03540859 C20.8208252,8.21915904 17.3386259,11.5537391 9.81571718,11.9496773 C9.81571718,17.5395638 10.3987167,20.6027902 11.3496481,22.477852 C10.5993849,21.9342214 10.0281969,21.4464654 9.28702831,20.6985482 C7.04878226,18.439922 7.68193543,14.3147176 7.68193543,9.81580638 C16.4553295,9.81580638 19.9516886,6.90512985 22.2091446,5.74416692 C22.353591,5.82545679 22.5001345,5.93110048 22.6479114,6.03540859 Z" id="2nd-shield-col" fill="url(#linearGradient-4)"></path>
                <path d="M11.0960908,13.2299999 C11.0960908,23.4725805 12.3881252,23.0171847 15.3638709,24.752903 C18.3512902,21.7654837 21.3387095,19.6316128 22.1922579,16.2174192 C22.7341461,14.0498663 22.6190321,9.81580638 22.6190321,7.25516124 C21.1810886,9.09892128 17.9882386,12.5059164 11.0960908,13.2299999 Z" id="Path-Copy" fill="url(#linearGradient-5)"></path>
                <path d="M2.56064514,5.54806447 C14.5103225,5.97483866 18.7780644,4.69451609 21.7654837,3.84096771 C22.1922579,5.12129028 23.0458063,5.12129028 23.4725805,5.12129028 C23.4725805,13.2299999 23.4725805,15.790645 22.6190321,17.924516 C21.6333805,20.388645 19.180111,22.7921847 15.3638709,26.0332256 C10.2425806,22.9035482 6.82838705,20.200645 5.12129028,17.924516 C2.56064514,14.5103225 2.56064514,12.8032257 2.56064514,5.54806447 Z M11.0960908,13.2299999 C11.0960908,23.4725805 12.3881252,23.0171847 15.3638709,24.752903 C18.3512902,21.7654837 21.3387095,19.6316128 22.1922579,16.2174192 C22.7341461,14.0498663 22.6190321,9.81580638 22.6190321,7.25516124 C21.1810886,9.09892128 17.9882386,12.5059164 11.0960908,13.2299999 Z M20.9250766,4.84997241 C18.1843029,5.68835384 14.2949397,7.19810396 3.84096771,6.82838705 C3.84096771,11.9496773 3.58789995,14.3461786 5.97483866,17.4977418 C6.3487486,17.9914289 6.80759594,18.5026372 7.35138069,19.0313669 C6.26370074,16.3098893 6.40161285,12.2276568 6.40161285,8.53548381 C15.1631669,8.53548381 18.9653352,6.63146833 21.366448,5.49396223 C21.167658,5.32423067 21.0205342,5.1095674 20.9250766,4.84997241 Z M21.785398,5.9727942 C19.509818,7.2463066 15.9251188,9.81580638 7.68193543,9.81580638 C7.68193543,16.0218144 7.68193543,19.6316128 9.61066134,20.936994 C10.1276769,21.2869153 10.5759279,21.5821202 11.0933885,21.9212011 C10.2950531,20.0095051 9.81571718,17.0182877 9.81571718,11.9496773 C17.0326596,11.5698424 20.3065404,8.57986203 22.1922579,6.40161285 C22.6190321,5.97483866 21.9448018,6.1408012 21.785398,5.9727942 Z" id="Shape" fill="#FFFFFF"></path>
            </g>
        </g>
        <path d="M36.3598633,22.8759766 L36.3598633,24.6425781 L37.3134766,24.6425781 C37.9067383,24.6425781 38.2583008,24.3129883 38.2583008,23.7636719 C38.2583008,23.2231445 37.8847656,22.8759766 37.309082,22.8759766 L36.3598633,22.8759766 Z M36.3598633,25.7807617 L36.3598633,28 L34.7470703,28 L34.7470703,21.6586914 L37.5375977,21.6586914 C39.0185547,21.6586914 39.90625,22.440918 39.90625,23.7504883 C39.90625,24.5283203 39.5195312,25.2402344 38.8251953,25.543457 L40.0908203,28 L38.2802734,28 L37.1948242,25.7807617 L36.3598633,25.7807617 Z M43.1567208,24.0976562 C42.6469552,24.0976562 42.2909981,24.4536133 42.2514473,25.0073242 L44.026838,25.0073242 C44.0004708,24.4360352 43.6752755,24.0976562 43.1567208,24.0976562 Z M44.0839669,26.5585938 L45.5034005,26.5585938 C45.3320138,27.512207 44.4355294,28.1142578 43.1699044,28.1142578 C41.6098458,28.1142578 40.7133614,27.1914062 40.7133614,25.5874023 C40.7133614,23.9746094 41.6318184,22.9946289 43.1479317,22.9946289 C44.6552559,22.9946289 45.5341622,23.9086914 45.5341622,25.46875 L45.5341622,25.8994141 L42.2426583,25.8994141 L42.2426583,25.9785156 C42.2558419,26.6157227 42.620588,27.0112305 43.2138497,27.0112305 C43.6664864,27.0112305 43.9784981,26.8442383 44.0839669,26.5585938 Z M48.4726213,26.9892578 C48.9648088,26.9892578 49.347133,26.6640625 49.347133,26.2421875 L49.347133,25.9213867 L48.5253556,25.9741211 C48.0639299,26.0092773 47.8222306,26.1894531 47.8222306,26.4838867 C47.8222306,26.7958984 48.081508,26.9892578 48.4726213,26.9892578 Z M47.9057267,28.074707 C46.965297,28.074707 46.3236955,27.4902344 46.3236955,26.59375 C46.3236955,25.7016602 47.0180314,25.1831055 48.2792619,25.1083984 L49.347133,25.046875 L49.347133,24.6645508 C49.347133,24.3349609 49.1010392,24.137207 48.6703752,24.137207 C48.2616838,24.137207 47.9980119,24.2734375 47.8969377,24.5327148 L46.4994767,24.5327148 C46.5697892,23.5834961 47.4355119,22.9946289 48.7582658,22.9946289 C50.1073869,22.9946289 50.8764299,23.6098633 50.8764299,24.6645508 L50.8764299,28 L49.3647111,28 L49.3647111,27.3935547 L49.281215,27.3935547 C49.0614884,27.8110352 48.5253556,28.074707 47.9057267,28.074707 Z M52.0219202,24.5810547 C52.0219202,23.6098633 52.8524866,22.9946289 54.170846,22.9946289 C55.5243616,22.9946289 56.2670374,23.5175781 56.3241663,24.5019531 L54.9091272,24.5019531 C54.8651819,24.2163086 54.6059045,24.0449219 54.1840295,24.0449219 C53.7797327,24.0449219 53.4984827,24.2207031 53.4984827,24.484375 C53.4984827,24.690918 53.6742639,24.8139648 54.0609827,24.8974609 L55.0717249,25.1040039 C56.0341272,25.3061523 56.4516077,25.7060547 56.4516077,26.4487305 C56.4516077,27.4638672 55.5595178,28.1142578 54.1928186,28.1142578 C52.7909631,28.1142578 51.9911585,27.5825195 51.9032678,26.5981445 L53.401803,26.5981445 C53.4809045,26.9013672 53.75776,27.0639648 54.2147913,27.0639648 C54.6410608,27.0639648 54.9179163,26.8925781 54.9179163,26.6289062 C54.9179163,26.4223633 54.7728967,26.3125 54.3817835,26.2290039 L53.4721155,26.0356445 C52.5009241,25.8291016 52.0219202,25.3500977 52.0219202,24.5810547 Z M59.7548128,28.1142578 C58.1903597,28.1142578 57.2631136,27.1606445 57.2631136,25.5522461 C57.2631136,23.9702148 58.2167269,22.9946289 59.7548128,22.9946289 C61.3016878,22.9946289 62.2465121,23.9614258 62.2465121,25.5522461 C62.2465121,27.1650391 61.3236605,28.1142578 59.7548128,28.1142578 Z M59.7548128,26.9277344 C60.3261019,26.9277344 60.6512972,26.4223633 60.6512972,25.5522461 C60.6512972,24.699707 60.3173128,24.1811523 59.7548128,24.1811523 C59.1923128,24.1811523 58.8583285,24.699707 58.8583285,25.5522461 C58.8583285,26.4267578 59.1835238,26.9277344 59.7548128,26.9277344 Z M63.2909281,28 L63.2909281,23.1088867 L64.8026469,23.1088867 L64.8026469,23.9042969 L64.886143,23.9042969 C65.101475,23.3505859 65.6112406,22.9946289 66.3187602,22.9946289 C67.4086039,22.9946289 67.9754985,23.6669922 67.9754985,24.840332 L67.9754985,28 L66.4198344,28 L66.4198344,25.1875 C66.4198344,24.5942383 66.1781352,24.2646484 65.6507914,24.2646484 C65.1454203,24.2646484 64.8421977,24.6425781 64.8421977,25.2050781 L64.8421977,28 L63.2909281,28 Z M71.116106,26.9892578 C71.6082935,26.9892578 71.9906177,26.6640625 71.9906177,26.2421875 L71.9906177,25.9213867 L71.1688403,25.9741211 C70.7074146,26.0092773 70.4657153,26.1894531 70.4657153,26.4838867 C70.4657153,26.7958984 70.7249927,26.9892578 71.116106,26.9892578 Z M70.5492114,28.074707 C69.6087817,28.074707 68.9671802,27.4902344 68.9671802,26.59375 C68.9671802,25.7016602 69.6615161,25.1831055 70.9227466,25.1083984 L71.9906177,25.046875 L71.9906177,24.6645508 C71.9906177,24.3349609 71.7445239,24.137207 71.3138599,24.137207 C70.9051685,24.137207 70.6414966,24.2734375 70.5404224,24.5327148 L69.1429614,24.5327148 C69.2132739,23.5834961 70.0789966,22.9946289 71.4017505,22.9946289 C72.7508716,22.9946289 73.5199146,23.6098633 73.5199146,24.6645508 L73.5199146,28 L72.0081958,28 L72.0081958,27.3935547 L71.9246997,27.3935547 C71.7049732,27.8110352 71.1688403,28.074707 70.5492114,28.074707 Z M77.8909908,28.074707 C77.1966549,28.074707 76.6473385,27.7626953 76.4144283,27.2353516 L76.3309322,27.2353516 L76.3309322,28 L74.8192135,28 L74.8192135,21.2763672 L76.370483,21.2763672 L76.370483,23.8955078 L76.4539791,23.8955078 C76.6912838,23.3505859 77.2186275,23.0341797 77.8909908,23.0341797 C79.1302486,23.0341797 79.8421627,23.9570312 79.8421627,25.5522461 C79.8421627,27.1386719 79.117065,28.074707 77.8909908,28.074707 Z M77.3109127,24.2558594 C76.7308346,24.2558594 76.3660885,24.7568359 76.3616939,25.5566406 C76.3660885,26.3564453 76.72644,26.8530273 77.3109127,26.8530273 C77.8909908,26.8530273 78.2469478,26.3564453 78.2469478,25.5522461 C78.2469478,24.7568359 77.8865963,24.2558594 77.3109127,24.2558594 Z M80.9305241,28 L80.9305241,21.2763672 L82.4817936,21.2763672 L82.4817936,28 L80.9305241,28 Z M86.0135144,24.0976562 C85.5037488,24.0976562 85.1477918,24.4536133 85.108241,25.0073242 L86.8836316,25.0073242 C86.8572644,24.4360352 86.5320691,24.0976562 86.0135144,24.0976562 Z M86.9407605,26.5585938 L88.3601941,26.5585938 C88.1888074,27.512207 87.292323,28.1142578 86.026698,28.1142578 C84.4666394,28.1142578 83.570155,27.1914062 83.570155,25.5874023 C83.570155,23.9746094 84.4886121,22.9946289 86.0047254,22.9946289 C87.5120496,22.9946289 88.3909558,23.9086914 88.3909558,25.46875 L88.3909558,25.8994141 L85.0994519,25.8994141 L85.0994519,25.9785156 C85.1126355,26.6157227 85.4773816,27.0112305 86.0706433,27.0112305 C86.52328,27.0112305 86.8352918,26.8442383 86.9407605,26.5585938 Z M91.8508818,21.6586914 L94.6282255,21.6586914 C95.9905302,21.6586914 96.9133818,22.5463867 96.9133818,23.9086914 C96.9133818,25.2578125 95.9421904,26.1411133 94.5315458,26.1411133 L93.4636747,26.1411133 L93.4636747,28 L91.8508818,28 L91.8508818,21.6586914 Z M93.4636747,22.8979492 L93.4636747,24.9238281 L94.1931669,24.9238281 C94.8787138,24.9238281 95.2830107,24.5722656 95.2830107,23.9130859 C95.2830107,23.2451172 94.8831083,22.8979492 94.201956,22.8979492 L93.4636747,22.8979492 Z M98.0281104,28 L98.0281104,23.1088867 L99.5398291,23.1088867 L99.5398291,23.9130859 L99.6233252,23.9130859 C99.7419776,23.4208984 100.216587,23.0341797 100.827427,23.0341797 C101.03397,23.0341797 101.275669,23.0605469 101.389927,23.1088867 L101.389927,24.4316406 C101.271274,24.3833008 100.959263,24.34375 100.721958,24.34375 C100.036411,24.34375 99.5793799,24.7304688 99.5793799,25.4116211 L99.5793799,28 L98.0281104,28 Z M102.27614,28 L102.27614,23.1088867 L103.831804,23.1088867 L103.831804,28 L102.27614,28 Z M103.053972,22.5419922 C102.50905,22.5419922 102.17946,22.2651367 102.17946,21.8520508 C102.17946,21.4345703 102.50905,21.1577148 103.053972,21.1577148 C103.603288,21.1577148 103.932878,21.4345703 103.932878,21.8520508 C103.932878,22.2651367 103.603288,22.5419922 103.053972,22.5419922 Z M109.771728,23.1088867 L108.141357,28 L106.348388,28 L104.700439,23.1088867 L106.374755,23.1088867 L107.2229,26.6069336 L107.306396,26.6069336 L108.136962,23.1088867 L109.771728,23.1088867 Z M112.393781,26.9892578 C112.885968,26.9892578 113.268292,26.6640625 113.268292,26.2421875 L113.268292,25.9213867 L112.446515,25.9741211 C111.985089,26.0092773 111.74339,26.1894531 111.74339,26.4838867 C111.74339,26.7958984 112.002667,26.9892578 112.393781,26.9892578 Z M111.826886,28.074707 C110.886456,28.074707 110.244855,27.4902344 110.244855,26.59375 C110.244855,25.7016602 110.939191,25.1831055 112.200421,25.1083984 L113.268292,25.046875 L113.268292,24.6645508 C113.268292,24.3349609 113.022199,24.137207 112.591534,24.137207 C112.182843,24.137207 111.919171,24.2734375 111.818097,24.5327148 L110.420636,24.5327148 C110.490949,23.5834961 111.356671,22.9946289 112.679425,22.9946289 C114.028546,22.9946289 114.797589,23.6098633 114.797589,24.6645508 L114.797589,28 L113.28587,28 L113.28587,27.3935547 L113.202374,27.3935547 C112.982648,27.8110352 112.446515,28.074707 111.826886,28.074707 Z M120.535365,24.9194336 L119.107142,24.9194336 C119.041224,24.4624023 118.759974,24.1899414 118.285365,24.1899414 C117.678919,24.1899414 117.371302,24.6425781 117.371302,25.5478516 C117.371302,26.4619141 117.683314,26.9189453 118.285365,26.9189453 C118.751185,26.9189453 119.036829,26.6816406 119.107142,26.2246094 L120.535365,26.2246094 C120.443079,27.3935547 119.612513,28.1142578 118.285365,28.1142578 C116.672572,28.1142578 115.811244,27.2177734 115.811244,25.5478516 C115.811244,23.8867188 116.672572,22.9946289 118.285365,22.9946289 C119.634486,22.9946289 120.438685,23.7197266 120.535365,24.9194336 Z M122.247749,29.7797852 C122.225777,29.7797852 121.702828,29.7797852 121.680855,29.7753906 L121.680855,28.5932617 C121.702828,28.5976562 121.931343,28.6020508 121.953316,28.6020508 C122.458687,28.6020508 122.753121,28.4658203 122.805855,28.1757812 L122.827828,28.0395508 L121.157906,23.1088867 L122.876167,23.1088867 L123.750679,26.6948242 L123.834175,26.6948242 L124.708687,23.1088867 L126.352242,23.1088867 L124.778999,27.9912109 C124.361519,29.2963867 123.649605,29.7797852 122.247749,29.7797852 Z" id="ReasonablePrivacy" fill="#7D00EB" fill-rule="nonzero"></path>
        <path d="M40,11 L40,18 L36,18 L36,9 L33,9 L33,7 L43,7 L43,11 L40,11 Z M50,7 L53,7 L53,10 L50,10 L50,7 Z M46,12 L52,12 L52,18 L46,18 L46,12 Z M64,14 L61,14 L61,18 L57,18 L57,10 L64,10 L64,9 L67,9 L67,18 L64,18 L64,14 Z M74,9 L74,14 L80,14 L80,18 L71,18 L71,7 L80,7 L80,10 L77,10 L77,9 L74,9 Z M91,15 L91,10 L94,10 L94,18 L84,18 L84,9 L88,9 L88,15 L91,15 Z M107,9 L107,18 L98,18 L98,7 L102,7 L102,9 L107,9 Z M104,11 L101,11 L101,14 L104,14 L104,11 Z M112,7 L121,7 L121,9 L118,9 L118,12 L115,12 L115,14 L121,14 L121,18 L112,18 L112,7 Z M131,11 L131,18 L127,18 L127,9 L124,9 L124,7 L134,7 L134,11 L131,11 Z M147,7 L147,18 L143,18 L143,14 L140,14 L140,18 L137,18 L137,7 L141,7 L141,11 L144,11 L144,7 L147,7 Z" id="Brandname" fill="#FFFFFF"></path>
        <rect id="CUTOUT-line-(magenta?)" stroke="#E010D2" x="0.5" y="0.5" width="154" height="34" rx="8"></rect>
    </g>
</svg>