<?xml version="1.0" encoding="UTF-8"?>
<svg width="60px" height="60px" viewBox="0 0 60 60" version="1.1" xmlns="http://www.w3.org/2000/svg" xmlns:xlink="http://www.w3.org/1999/xlink">
    <!-- Generator: Sketch 55.2 (78181) - https://sketchapp.com -->
    <title>Tincubeth Symbol draft 60px 02</title>
    <desc>Created with Sketch.</desc>
    <defs>
        <linearGradient x1="50%" y1="42.0994044%" x2="70.1029161%" y2="69.7551034%" id="linearGradient-1">
            <stop stop-color="#C07AFD" offset="0%"></stop>
            <stop stop-color="#6E00CF" offset="100%"></stop>
        </linearGradient>
        <path d="M36.8359375,25.6640625 L36.8359375,23.0273438 L38.8984375,23.0273438 C40.5039062,23.0273438 41.59375,22.0898438 41.59375,20.7070312 C41.59375,19.3476562 40.5390625,18.4804688 38.8867188,18.4804688 C37.2460938,18.4804688 36.15625,19.40625 36.0625,20.8710938 L32.7929688,20.8710938 C32.9101562,17.671875 35.2890625,15.65625 38.9804688,15.65625 C42.4492188,15.65625 44.9453125,17.5546875 44.9453125,20.2148438 C44.9453125,22.171875 43.7148438,23.6953125 41.828125,24.0820312 L41.828125,24.2929688 C44.1484375,24.5507812 45.6015625,26.0976562 45.6015625,28.3242188 C45.6015625,31.2890625 42.8125,33.4335938 38.9570312,33.4335938 C35.1835938,33.4335938 32.6289062,31.3476562 32.4765625,28.1601562 L35.8632812,28.1601562 C35.96875,29.5898438 37.1757812,30.4921875 38.9921875,30.4921875 C40.7617188,30.4921875 41.9921875,29.4960938 41.9921875,28.0546875 C41.9921875,26.578125 40.8320312,25.6640625 38.9335938,25.6640625 L36.8359375,25.6640625 Z" id="path-2"></path>
        <filter x="-64.8%" y="-36.6%" width="229.5%" height="195.6%" filterUnits="objectBoundingBox" id="filter-3">
            <feOffset dx="0" dy="2" in="SourceAlpha" result="shadowOffsetOuter1"></feOffset>
            <feGaussianBlur stdDeviation="2.5" in="shadowOffsetOuter1" result="shadowBlurOuter1"></feGaussianBlur>
            <feColorMatrix values="0 0 0 0 0.351887251   0 0 0 0 0.00643189782   0 0 0 0 0.655429121  0 0 0 1 0" type="matrix" in="shadowBlurOuter1"></feColorMatrix>
        </filter>
    </defs>
    <g id="Tincubeth-Symbol-draft-60px-02" stroke="none" stroke-width="1" fill="none" fill-rule="evenodd">
        <g id="shield-L" transform="translate(1.000000, 3.000000)">
            <g id="shiled-03" transform="translate(5.000000, 0.000000)">
                <path d="M23.9736782,52.9999088 C16.3415125,52.9471017 0,29.9666561 0,1 L3,0 C11,4.66666667 18,7.66666667 24,9 C24,36.0724638 24,50.7391304 24,53 C23.9912381,53 23.9824645,52.9999666 23.9736792,52.9998998 Z" id="shield-03-top" fill="#AD59F7"></path>
                <path d="M0,1 C8,5.66666667 16,8.33333333 24,9 C24,36.0724638 24,50.7391304 24,53 C16.3791561,53 0,30 0,1 Z" id="shield-03" fill="#6E00CF"></path>
            </g>
            <path d="M0,9.09756098 C8.66666667,11.0325203 18.3333333,11 29,9 C29,37.4715447 29,52.804878 29,55 C21.4615385,55 0,39 0,9.09756098 Z" id="shield-02-top" fill="#C07AFD"></path>
            <path d="M0,11.097561 C8.66666667,13.0325203 18.3333333,12.3333333 29,9 C29,37.4715447 29,52.804878 29,55 C21.4615385,55 0,41 0,11.097561 Z" id="shield-02" fill="#9013FE"></path>
            <g id="shield-01" transform="translate(5.999731, 9.000000)">
                <path d="M0.00026924668,9 C8.66693591,8.33333333 16.3462745,5.33333333 23.0382849,0 C23.0117806,27.8536585 22.9985284,42.8536585 22.9985284,45 C18.7756012,45 -0.0821362939,33.4878049 0.00026924668,9 Z" id="shield-01-top-L" fill="#DFBAFF"></path>
                <path d="M2.00026925,10 C2.00026925,34.9983004 18.7733204,45.9985043 22.997667,45.9999998 C18.772816,45.9989614 0.00026924668,38.9977748 0.00026924668,9 C0.00026924668,9 1.89986775,10.0956125 2.00026925,10 Z" id="shield-01-edge-L" fill="#6E00CF"></path>
                <path d="M2.00026925,10 C11.3336026,9.33333333 18.3462745,6 23.0382849,0 C23.0117806,28.5203252 22.9985284,43.8536585 22.9985284,46 C18.7756012,46 2.00026925,35 2.00026925,10 Z" fill="url(#linearGradient-1)"></path>
            </g>
        </g>
        <g id="shield-R" transform="translate(44.000000, 30.500000) scale(-1, 1) translate(-44.000000, -30.500000) translate(29.000000, 3.000000)">
            <g id="shiled-03" transform="translate(5.000000, 0.000000)">
                <path d="M23.9736782,52.9999088 C16.3415125,52.9471017 0,29.9666561 0,1 L3,0 C11,4.66666667 18,7.66666667 24,9 C24,36.0724638 24,50.7391304 24,53 C23.9912381,53 23.9824645,52.9999666 23.9736792,52.9998998 Z" id="shield-03-top" fill="#AD59F7"></path>
                <path d="M0,1 C8,5.66666667 16,8.33333333 24,9 C24,36.0724638 24,50.7391304 24,53 C16.3791561,53 0,30 0,1 Z" id="shield-03" fill="#6E00CF"></path>
            </g>
            <path d="M0,9.09756098 C8.66666667,11.0325203 18.3333333,11 29,9 C29,37.4715447 29,52.804878 29,55 C21.4615385,55 0,39 0,9.09756098 Z" id="shield-02-top" fill="#C07AFD"></path>
            <path d="M0,11.097561 C8.66666667,13.0325203 18.3333333,12.3333333 29,9 C29,37.4715447 29,52.804878 29,55 C21.4615385,55 0,41 0,11.097561 Z" id="shield-02" fill="#9013FE"></path>
            <g id="shield-01" transform="translate(5.999731, 9.000000)">
                <path d="M0.00026924668,9 C8.66693591,8.33333333 16.3462745,5.33333333 23.0382849,0 C23.0117806,27.8536585 22.9985284,42.8536585 22.9985284,45 C18.7756012,45 -0.0821362939,33.4878049 0.00026924668,9 Z" id="shield-01-top-L" fill="#DFBAFF"></path>
                <path d="M2.00026925,10 C2.00026925,34.9983004 18.7733204,45.9985043 22.997667,45.9999998 C18.772816,45.9989614 0.00026924668,38.9977748 0.00026924668,9 C0.00026924668,9 1.89986775,10.0956125 2.00026925,10 Z" id="shield-01-edge-L" fill="#6E00CF"></path>
                <path d="M2.00026925,10 C11.3336026,9.33333333 18.3462745,6 23.0382849,0 C23.0117806,28.5203252 22.9985284,43.8536585 22.9985284,46 C18.7756012,46 2.00026925,35 2.00026925,10 Z" fill="url(#linearGradient-1)"></path>
            </g>
        </g>
        <g id="3" fill-rule="nonzero">
            <use fill="black" fill-opacity="1" filter="url(#filter-3)" xlink:href="#path-2"></use>
            <use fill="#FFFFFF" xlink:href="#path-2"></use>
        </g>
    </g>
</svg>