<?xml version="1.0" encoding="UTF-8"?>
<svg width="131px" height="130px" viewBox="0 0 131 130" version="1.1" xmlns="http://www.w3.org/2000/svg" xmlns:xlink="http://www.w3.org/1999/xlink">
    <!-- Generator: Sketch 55.2 (78181) - https://sketchapp.com -->
    <title>TincubETH- logo Symbol color white on dark-clear- 3.90x4.07cm Copy</title>
    <desc>Created with Sketch.</desc>
    <defs>
        <rect id="path-1" x="0" y="0" width="128.030303" height="128.030303"></rect>
        <linearGradient x1="31.1275776%" y1="50%" x2="73.9053607%" y2="50%" id="linearGradient-3">
            <stop stop-color="#9013FE" offset="0%"></stop>
            <stop stop-color="#5A02A7" offset="100%"></stop>
        </linearGradient>
        <linearGradient x1="35.8881619%" y1="50%" x2="92.9476978%" y2="50%" id="linearGradient-4">
            <stop stop-color="#A33AFF" offset="0%"></stop>
            <stop stop-color="#5A02A7" offset="100%"></stop>
        </linearGradient>
        <linearGradient x1="35.8881619%" y1="50%" x2="92.9476978%" y2="50%" id="linearGradient-5">
            <stop stop-color="#C07AFD" offset="0%"></stop>
            <stop stop-color="#7D00EB" offset="100%"></stop>
        </linearGradient>
    </defs>
    <g id="TincubETH--logo-Symbol-color-white-on-dark-clear--3.90x4.07cm-Copy" stroke="none" stroke-width="1" fill="none" fill-rule="evenodd" transform="translate(1.000000, 0.000000)">
        <g id="Group" transform="translate(2.000000, -7.000000)">
            <g id="shield-Logo-62px-color-clear-outlined-Copy-11">
                <g id="Symbol">
                    <mask id="mask-2" fill="white">
                        <use xlink:href="#path-1"></use>
                    </mask>
                    <g id="Mask"></g>
                    <path d="M105.301828,25.6836231 C93.7789701,31.0108992 75.7771502,41.3000978 30.9750733,41.3000978 C30.9750733,59.2517364 30.3012848,79.1090639 35.64757,92.2767932 C32.9827189,89.6144113 30.736885,87.0772137 28.9100684,84.6652004 C17.3605412,69.4159335 18.585044,57.8201369 18.585044,33.0400782 C72.4828376,34.9462366 90.3173512,26.5273705 103.7918,22.7150538 C104.178218,23.8630086 104.681561,24.8525317 105.301828,25.6836231 Z" id="3rd-shield-col" fill="url(#linearGradient-3)"></path>
                    <path d="M109.584996,29.2031442 C100.744391,39.7695174 83.8952963,55.9043361 47.4946808,57.8201369 C47.4946808,84.8675618 50.3156031,99.6893988 54.9168139,108.76214 C51.2865635,106.13171 48.5227926,103.771636 44.9365479,100.152737 C34.1064904,89.2240672 37.170088,69.2637056 37.170088,47.4951124 C79.6213471,47.4951124 96.5389552,33.4114087 107.461963,27.7939319 C108.160886,28.1872639 108.869957,28.6984353 109.584996,29.2031442 Z" id="2nd-shield-col" fill="url(#linearGradient-4)"></path>
                    <path d="M53.6899424,64.0151515 C53.6899424,113.575269 59.9416266,111.371774 74.340176,119.770283 C88.7952102,105.315249 103.250244,94.9902248 107.380254,78.4701857 C110.002254,67.9821866 109.445259,47.4951124 109.445259,35.1050831 C102.487574,44.0263665 87.0385358,60.5115751 53.6899424,64.0151515 Z" id="Path-Copy" fill="url(#linearGradient-5)"></path>
                    <path d="M12.3900293,26.8450635 C70.2101662,28.9100684 90.8602151,22.7150538 105.315249,18.585044 C107.380254,24.7800587 111.510264,24.7800587 113.575269,24.7800587 C113.575269,64.0151515 113.575269,76.4051808 109.445259,86.7302053 C104.67605,98.6532282 92.8055722,110.283082 74.340176,125.965298 C49.5601173,110.821929 33.0400782,97.7435647 24.7800587,86.7302053 C12.3900293,70.2101662 12.3900293,61.9501466 12.3900293,26.8450635 Z M53.6899424,64.0151515 C53.6899424,113.575269 59.9416266,111.371774 74.340176,119.770283 C88.7952102,105.315249 103.250244,94.9902248 107.380254,78.4701857 C110.002254,67.9821866 109.445259,47.4951124 109.445259,35.1050831 C102.487574,44.0263665 87.0385358,60.5115751 53.6899424,64.0151515 Z M101.248826,23.4672503 C87.9872193,27.5238727 69.1680072,34.8290037 18.585044,33.0400782 C18.585044,57.8201369 17.3605412,69.4159335 28.9100684,84.6652004 C30.7192824,87.0539724 32.9394776,89.5275234 35.570654,92.0858535 C30.3077668,78.9176145 30.9750733,59.1651782 30.9750733,41.3000978 C73.3690424,41.3000978 91.7663502,32.0872603 103.384461,26.5832825 C102.422588,25.7620133 101.71071,24.7233359 101.248826,23.4672503 Z M105.411607,28.900176 C94.4009043,35.0622387 77.0558503,47.4951124 37.170088,47.4951124 C37.170088,77.5237252 37.170088,94.9902248 46.5024903,101.306489 C49.0041401,102.999631 51.1730634,104.42802 53.6768669,106.068709 C49.814013,96.8187081 47.4946808,82.3452964 47.4946808,57.8201369 C82.414837,55.9822541 98.2559541,41.5148278 107.380254,30.9750733 C109.445259,28.9100684 106.182904,29.7131007 105.411607,28.900176 Z" id="Shape" fill="#FFFFFF"></path>
                </g>
            </g>
            <path d="M11.4064317,23.1562482 C9.47704849,23.1606886 7.68012121,24.9321686 7.68012118,26.7882529 C7.68754497,48.2501865 8.02365058,56.3888144 9.5562264,64.2303902 C11.2561607,72.9282723 14.4881706,79.6345679 21.1180108,88.4360914 C29.7527777,99.8992789 46.7403382,113.468371 72.0708721,129.119704 C72.9308665,129.651081 76.5806031,129.592327 77.1993224,129.041267 C98.1370043,110.393189 107.811266,99.7052809 112.770762,88.536381 C116.44807,80.2549991 116.998663,72.6932989 117.16014,37.9571831 C117.2065,27.9844931 117.211322,27.0240942 117.241382,22.5628671 C117.246122,21.7834386 116.447682,20.9547435 115.595503,20.856604 C112.53611,20.5042753 110.76531,19.6200524 109.260004,16.8504974 C109.205964,16.7510713 109.167789,16.6481899 109.123876,16.5021299 C108.932663,15.866128 108.983464,16.0234798 108.903548,15.8662613 C108.453613,14.9811057 107.097295,14.6677274 103.825133,15.3885178 C81.3765085,20.836746 60.30613,23.0437066 11.4064317,23.1562482 Z" id="symbol-CUTOUT-line--(magenta?)" stroke="#E010D2" stroke-width="1.02424242"></path>
        </g>
    </g>
</svg>